# xmcd
#
# Track frame offsets:
#  150
#  28324
#  53988
#  75228
#  91906
#  117372
#
# Disc length: 1844 seconds
#
# Revision: 0
# Processed by: cddbd v1.5.1PL0 Copyright (c) Steve Scherf et al.
# Submitted via: Collectorz.com_Music_Collector 6.9
#
DISCID=42073206
DTITLE=Ignitor - Take To the Sky
DYEAR=2004
DGENRE=Heavy Metal
TTITLE0=Demonslayer
TTITLE1=Execution
TTITLE2=The Gray Ghost
TTITLE3=Take To the Sky
TTITLE4=The Last King Tiger
TTITLE5=Lean Mean Leather Machine
EXTD=
EXTT0=
EXTT1=
EXTT2=
EXTT3=
EXTT4=
EXTT5=
PLAYORDER=
